  0
SECTION
  2
HEADER
  9
$ACADVER
  1
AC1009
  9
$INSBASE
 10
0.0
 20
0.0
 30
0.0
  9
$EXTMIN
 10
-31.5000000000000107
 20
-45.9999999999999929
 30
0.0
  9
$EXTMAX
 10
73.0859451181154753
 20
71.4528774419484165
 30
0.0
  9
$LIMMIN
 10
0.0
 20
0.0
  9
$LIMMAX
 10
420.0
 20
297.0
  9
$ORTHOMODE
 70
     0
  9
$REGENMODE
 70
     1
  9
$FILLMODE
 70
     1
  9
$QTEXTMODE
 70
     0
  9
$MIRRTEXT
 70
     0
  9
$DRAGMODE
 70
     2
  9
$LTSCALE
 40
1.0
  9
$OSMODE
 70
    55
  9
$ATTMODE
 70
     1
  9
$TEXTSIZE
 40
2.5
  9
$TRACEWID
 40
1.0
  9
$TEXTSTYLE
  7
STANDARD
  9
$CLAYER
  8
0
  9
$CELTYPE
  6
BYLAYER
  9
$CECOLOR
 62
   256
  9
$DIMSCALE
 40
1.0
  9
$DIMASZ
 40
2.5
  9
$DIMEXO
 40
0.625
  9
$DIMDLI
 40
3.75
  9
$DIMRND
 40
0.0
  9
$DIMDLE
 40
0.0
  9
$DIMEXE
 40
1.25
  9
$DIMTP
 40
0.0
  9
$DIMTM
 40
0.0
  9
$DIMTXT
 40
2.5
  9
$DIMCEN
 40
2.5
  9
$DIMTSZ
 40
0.0
  9
$DIMTOL
 70
     0
  9
$DIMLIM
 70
     0
  9
$DIMTIH
 70
     0
  9
$DIMTOH
 70
     0
  9
$DIMSE1
 70
     0
  9
$DIMSE2
 70
     0
  9
$DIMTAD
 70
     1
  9
$DIMZIN
 70
     8
  9
$DIMBLK
  1

  9
$DIMASO
 70
     1
  9
$DIMSHO
 70
     1
  9
$DIMPOST
  1

  9
$DIMAPOST
  1

  9
$DIMALT
 70
     0
  9
$DIMALTD
 70
     3
  9
$DIMALTF
 40
0.03937007874016
  9
$DIMLFAC
 40
1.0
  9
$DIMTOFL
 70
     1
  9
$DIMTVP
 40
0.0
  9
$DIMTIX
 70
     0
  9
$DIMSOXD
 70
     0
  9
$DIMSAH
 70
     0
  9
$DIMBLK1
  1

  9
$DIMBLK2
  1

  9
$DIMSTYLE
  2
ISO-25
  9
$DIMCLRD
 70
     0
  9
$DIMCLRE
 70
     0
  9
$DIMCLRT
 70
     0
  9
$DIMTFAC
 40
1.0
  9
$DIMGAP
 40
0.625
  9
$LUNITS
 70
     2
  9
$LUPREC
 70
     4
  9
$SKETCHINC
 40
1.0
  9
$FILLETRAD
 40
0.0
  9
$AUNITS
 70
     0
  9
$AUPREC
 70
     0
  9
$MENU
  1
.
  9
$ELEVATION
 40
0.0
  9
$PELEVATION
 40
0.0
  9
$THICKNESS
 40
0.0
  9
$LIMCHECK
 70
     0
  9
$BLIPMODE
 70
     0
  9
$CHAMFERA
 40
0.0
  9
$CHAMFERB
 40
0.0
  9
$SKPOLY
 70
     0
  9
$TDCREATE
 40
2459439.4275810187682509
  9
$TDUPDATE
 40
2459451.4290625001303852
  9
$TDINDWG
 40
0.0867361111
  9
$TDUSRTIMER
 40
0.0867361111
  9
$USRTIMER
 70
     1
  9
$ANGBASE
 50
0.0
  9
$ANGDIR
 70
     0
  9
$PDMODE
 70
     0
  9
$PDSIZE
 40
0.0
  9
$PLINEWID
 40
0.0
  9
$COORDS
 70
     1
  9
$SPLFRAME
 70
     0
  9
$SPLINETYPE
 70
     6
  9
$SPLINESEGS
 70
     8
  9
$ATTDIA
 70
     1
  9
$ATTREQ
 70
     1
  9
$HANDLING
 70
     1
  9
$HANDSEED
  5
8FD
  9
$SURFTAB1
 70
     6
  9
$SURFTAB2
 70
     6
  9
$SURFTYPE
 70
     6
  9
$SURFU
 70
     6
  9
$SURFV
 70
     6
  9
$UCSNAME
  2

  9
$UCSORG
 10
0.0
 20
0.0
 30
0.0
  9
$UCSXDIR
 10
1.0
 20
0.0
 30
0.0
  9
$UCSYDIR
 10
0.0
 20
1.0
 30
0.0
  9
$PUCSNAME
  2

  9
$PUCSORG
 10
0.0
 20
0.0
 30
0.0
  9
$PUCSXDIR
 10
1.0
 20
0.0
 30
0.0
  9
$PUCSYDIR
 10
0.0
 20
1.0
 30
0.0
  9
$USERI1
 70
     0
  9
$USERI2
 70
     0
  9
$USERI3
 70
     0
  9
$USERI4
 70
     0
  9
$USERI5
 70
     0
  9
$USERR1
 40
0.0
  9
$USERR2
 40
0.0
  9
$USERR3
 40
0.0
  9
$USERR4
 40
0.0
  9
$USERR5
 40
0.0
  9
$WORLDVIEW
 70
     1
  9
$SHADEDGE
 70
     3
  9
$SHADEDIF
 70
    70
  9
$TILEMODE
 70
     1
  9
$MAXACTVP
 70
    64
  9
$PLIMCHECK
 70
     0
  9
$PEXTMIN
 10
0.0
 20
0.0
 30
0.0
  9
$PEXTMAX
 10
0.0
 20
0.0
 30
0.0
  9
$PLIMMIN
 10
0.0
 20
0.0
  9
$PLIMMAX
 10
12.0
 20
9.0
  9
$UNITMODE
 70
     0
  9
$VISRETAIN
 70
     1
  9
$PLINEGEN
 70
     0
  9
$PSLTSCALE
 70
     1
  0
ENDSEC
  0
SECTION
  2
TABLES
  0
TABLE
  2
VPORT
 70
     1
  0
VPORT
  2
*ACTIVE
 70
     0
 10
0.0
 20
0.0
 11
1.0
 21
1.0
 12
-18.1320084039658695
 22
12.52056998196195
 13
0.0
 23
0.0
 14
10.0
 24
10.0
 15
10.0
 25
10.0
 16
0.0
 26
0.0
 36
1.0
 17
0.0
 27
0.0
 37
0.0
 40
188.92749812945641
 41
2.4628205128205121
 42
50.0
 43
0.0
 44
0.0
 50
0.0
 51
0.0
 71
     0
 72
  1000
 73
     1
 74
     3
 75
     0
 76
     1
 77
     0
 78
     0
  0
ENDTAB
  0
TABLE
  2
LTYPE
 70
     3
  0
LTYPE
  2
CONTINUOUS
 70
     0
  3
Solid line
 72
    65
 73
     0
 40
0.0
  0
LTYPE
  2
ACAD_ISO02W100
 70
     0
  3
ISO dash __ __ __ __ __ __ __ __ __ __ __ __ __
 72
    65
 73
     2
 40
15.0
 49
12.0
 49
-3.0
  0
ENDTAB
  0
TABLE
  2
LAYER
 70
     3
  0
LAYER
  2
0
 70
     0
 62
     7
  6
CONTINUOUS
  0
LAYER
  2
DEFPOINTS
 70
     0
 62
     7
  6
CONTINUOUS
  0
LAYER
  2
ADSK_CONSTRAINTS
 70
     0
 62
     7
  6
CONTINUOUS
  0
ENDTAB
  0
TABLE
  2
STYLE
 70
     4
  0
STYLE
  2
STANDARD
 70
     0
 40
0.0
 41
1.0
 50
0.0
 71
     0
 42
2.5
  3
txt
  4

  0
STYLE
  2
ANNOTATIVE
 70
     0
 40
0.0
 41
1.0
 50
0.0
 71
     0
 42
2.5
  3
txt
  4

  0
STYLE
  2

 70
     1
 40
0.0
 41
1.0
 50
0.0
 71
     0
 42
2.5
  3
ltypeshp.shx
  4

  0
ENDTAB
  0
TABLE
  2
VIEW
 70
     1
  0
ENDTAB
  0
TABLE
  2
UCS
 70
     0
  0
ENDTAB
  0
TABLE
  2
APPID
 70
    11
  0
APPID
  2
ACAD
 70
     0
  0
APPID
  2
ACAD_PSEXT
 70
     0
  0
APPID
  2
ACADANNOPO
 70
     0
  0
APPID
  2
ACADANNOTATIVE
 70
     0
  0
APPID
  2
ACAD_DSTYLE_DIMJAG
 70
     0
  0
APPID
  2
ACAD_DSTYLE_DIMTALN
 70
     0
  0
APPID
  2
ACAD_MLEADERVER
 70
     0
  0
APPID
  2
ACAD_NAV_VCDISPLAY
 70
     0
  0
APPID
  2
ACAD_EXEMPT_FROM_CAD_STANDARDS
 70
     0
  0
APPID
  2
ACADANNOMONITORALERTICONDI
 70
     0
  0
APPID
  2
ACAD_DSTYLE_DIMINSPECT
 70
     0
  0
ENDTAB
  0
TABLE
  2
DIMSTYLE
 70
     5
  0
DIMSTYLE
  2
STANDARD
 70
     0
  3

  4

  5

  6

  7

 40
1.0
 41
0.18
 42
0.0625
 43
0.38
 44
0.18
 45
0.0
 46
0.0
 47
0.0
 48
0.0
140
0.18
141
0.09
142
0.0
143
25.3999999999999986
144
1.0
145
0.0
146
1.0
147
0.09
 71
     0
 72
     0
 73
     1
 74
     1
 75
     0
 76
     0
 77
     0
 78
     0
170
     0
171
     2
172
     0
173
     0
174
     0
175
     0
176
     0
177
     0
178
     0
  0
DIMSTYLE
  2
ANNOTATIVE
 70
     0
  3

  4

  5

  6

  7

 40
0.0
 41
2.5
 42
0.625
 43
3.75
 44
1.25
 45
0.0
 46
0.0
 47
0.0
 48
0.0
140
2.5
141
2.5
142
0.0
143
0.03937007874016
144
1.0
145
0.0
146
1.0
147
0.625
 71
     0
 72
     0
 73
     0
 74
     0
 75
     0
 76
     0
 77
     1
 78
     8
170
     0
171
     3
172
     1
173
     0
174
     0
175
     0
176
     0
177
     0
178
     0
  0
DIMSTYLE
  2
ISO-25
 70
     0
  3

  4

  5

  6

  7

 40
1.0
 41
2.5
 42
0.625
 43
3.75
 44
1.25
 45
0.0
 46
0.0
 47
0.0
 48
0.0
140
2.5
141
2.5
142
0.0
143
0.03937007874016
144
1.0
145
0.0
146
1.0
147
0.625
 71
     0
 72
     0
 73
     0
 74
     0
 75
     0
 76
     0
 77
     1
 78
     8
170
     0
171
     3
172
     1
173
     0
174
     0
175
     0
176
     0
177
     0
178
     0
  0
ENDTAB
  0
ENDSEC
  0
SECTION
  2
BLOCKS
  0
BLOCK
  8
0
  2
$MODEL_SPACE
 70
     0
 10
0.0
 20
0.0
 30
0.0
  3
$MODEL_SPACE
  1

  0
ENDBLK
  5
21
  8
0
  0
BLOCK
 67
     1
  8
0
  2
$PAPER_SPACE
 70
     0
 10
0.0
 20
0.0
 30
0.0
  3
$PAPER_SPACE
  1

  0
ENDBLK
  5
D5
 67
     1
  8
0
  0
BLOCK
  8
0
  2
_CLOSEDBLANK
 70
     0
 10
0.0
 20
0.0
 30
0.0
  3
_CLOSEDBLANK
  1

  0
LINE
  5
5AB
  8
0
  6
BYBLOCK
 62
     0
 10
-1.0
 20
0.1666666666666666
 30
0.0
 11
0.0
 21
0.0
 31
0.0
  0
LINE
  5
5AC
  8
0
  6
BYBLOCK
 62
     0
 10
0.0
 20
0.0
 30
0.0
 11
-1.0
 21
-0.1666666666666666
 31
0.0
  0
LINE
  5
5AD
  8
0
  6
BYBLOCK
 62
     0
 10
-1.0
 20
0.1666666666666666
 30
0.0
 11
-1.0
 21
-0.1666666666666666
 31
0.0
  0
ENDBLK
  5
5AF
  8
0
  0
BLOCK
  8
0
  2
*D2
 70
     1
 10
0.0
 20
0.0
 30
0.0
  3
*D2
  1

  0
LINE
  5
764
  8
0
 62
     0
 10
19.9841232083408684
 20
50.3428876950213393
 30
0.0
 11
8.5693155789813211
 21
50.3428876950213393
 31
0.0
  0
LINE
  5
765
  8
0
 62
     0
 10
19.9841232083408684
 20
4.3428876950213189
 30
0.0
 11
8.56931557898133
 21
4.3428876950213171
 31
0.0
  0
LINE
  5
766
  8
0
 62
     0
 10
9.8193155789813211
 20
47.8428876950213322
 30
0.0
 11
9.81931557898133
 21
6.842887695021318
 31
0.0
  0
SOLID
  5
767
  8
0
 62
     0
 10
9.402648912314655
 20
47.8428876950213322
 30
0.0
 11
10.2359822456479801
 21
47.8428876950213322
 31
0.0
 12
9.8193155789813211
 22
50.3428876950213393
 32
0.0
 13
9.8193155789813211
 23
50.3428876950213393
 33
0.0
  0
SOLID
  5
768
  8
0
 62
     0
 10
9.4026489123146622
 20
6.842887695021318
 30
0.0
 11
10.2359822456479908
 21
6.8428876950213189
 31
0.0
 12
9.81931557898133
 22
4.3428876950213171
 32
0.0
 13
9.81931557898133
 23
4.3428876950213171
 33
0.0
  0
INSERT
  5
769
  8
0
  2
*U16
 10
0.0
 20
0.0
 30
0.0
  0
POINT
  5
76A
  8
DEFPOINTS
 62
     0
 10
20.6091232083408684
 20
50.3428876950213393
 30
0.0
  0
POINT
  5
76B
  8
DEFPOINTS
 62
     0
 10
20.6091232083408684
 20
4.3428876950213189
 30
0.0
  0
POINT
  5
76C
  8
DEFPOINTS
 62
     0
 10
9.81931557898133
 20
4.3428876950213171
 30
0.0
  0
ENDBLK
  5
5B9
  8
0
  0
BLOCK
  8
0
  2
*D3
 70
     1
 10
0.0
 20
0.0
 30
0.0
  3
*D3
  1

  0
LINE
  5
7EC
  8
0
 62
     0
 10
20.6091232083408613
 20
3.7178876950213171
 30
0.0
 11
20.6091232083408613
 21
-11.2771917366119396
 31
0.0
  0
LINE
  5
7ED
  8
0
 62
     0
 10
59.6091232083408471
 20
3.7178876950213171
 30
0.0
 11
59.6091232083408471
 21
-11.2771917366119396
 31
0.0
  0
LINE
  5
7EE
  8
0
 62
     0
 10
23.1091232083408613
 20
-10.0271917366119396
 30
0.0
 11
57.1091232083408471
 21
-10.0271917366119396
 31
0.0
  0
SOLID
  5
7EF
  8
0
 62
     0
 10
23.1091232083408613
 20
-9.6105250699452736
 30
0.0
 11
23.1091232083408613
 21
-10.4438584032786004
 31
0.0
 12
20.6091232083408613
 22
-10.0271917366119396
 32
0.0
 13
20.6091232083408613
 23
-10.0271917366119396
 33
0.0
  0
SOLID
  5
7F0
  8
0
 62
     0
 10
57.1091232083408471
 20
-9.6105250699452736
 30
0.0
 11
57.1091232083408471
 21
-10.4438584032786004
 31
0.0
 12
59.6091232083408471
 22
-10.0271917366119396
 32
0.0
 13
59.6091232083408471
 23
-10.0271917366119396
 33
0.0
  0
INSERT
  5
7F1
  8
0
  2
*U18
 10
0.0
 20
0.0
 30
0.0
  0
POINT
  5
7F2
  8
DEFPOINTS
 62
     0
 10
20.6091232083408613
 20
4.3428876950213171
 30
0.0
  0
POINT
  5
7F3
  8
DEFPOINTS
 62
     0
 10
59.6091232083408471
 20
4.3428876950213171
 30
0.0
  0
POINT
  5
7F4
  8
DEFPOINTS
 62
     0
 10
59.6091232083408471
 20
-10.0271917366119396
 30
0.0
  0
ENDBLK
  5
5D1
  8
0
  0
BLOCK
  8
0
  2
*D4
 70
     1
 10
0.0
 20
0.0
 30
0.0
  3
*D4
  1

  0
LINE
  5
83C
  8
0
 62
     0
 10
30.5353721833799305
 20
50.7999837585333012
 30
0.0
 11
41.6724398008480819
 21
62.7430265929352871
 31
0.0
  0
LINE
  5
83D
  8
0
 62
     0
 10
21.6828742333017992
 20
50.7999837585333012
 30
0.0
 11
10.5458066158336408
 21
62.7430265929353013
 31
0.0
  0
ARC
  5
83E
  8
0
 62
     0
 10
26.1091232083408684
 20
46.053412854922577
 30
0.0
 40
21.5701671791131595
 50
53.6443501017990982
 51
126.3556498982007952
  0
SOLID
  5
83F
  8
0
 62
     0
 10
39.1618542180360194
 20
63.74569557545626
 30
0.0
 11
38.6297958923854381
 21
63.1043233102698409
 31
0.0
 12
40.8199418507699576
 22
61.8288344659113278
 32
0.0
 13
40.8199418507699576
 23
61.8288344659113278
 33
0.0
  0
SOLID
  5
840
  8
0
 62
     0
 10
13.5884505242962899
 20
63.104323310269848
 30
0.0
 11
13.0563921986457103
 21
63.74569557545626
 31
0.0
 12
11.3983045659117597
 22
61.828834465911342
 32
0.0
 13
11.3983045659117597
 23
61.828834465911342
 33
0.0
  0
INSERT
  5
841
  8
0
  2
*U26
 10
0.0
 20
0.0
 30
0.0
  0
POINT
  5
842
  8
DEFPOINTS
 62
     0
 10
31.4490924960692908
 20
66.9521410492651228
 30
0.0
  0
POINT
  5
843
  8
DEFPOINTS
 62
     0
 10
22.1091232083408613
 20
50.342887695021318
 30
0.0
  0
POINT
  5
844
  8
DEFPOINTS
 62
     0
 10
30.1091232083408684
 20
50.342887695021318
 30
0.0
  0
POINT
  5
845
  8
DEFPOINTS
 62
     0
 10
26.1091232083408684
 20
46.053412854922577
 30
0.0
  0
POINT
  5
846
  8
DEFPOINTS
 62
     0
 10
26.1091232083408613
 20
46.053412854922577
 30
0.0
  0
ENDBLK
  5
627
  8
0
  0
BLOCK
  8
0
  2
*D5
 70
     1
 10
0.0
 20
0.0
 30
0.0
  3
*D5
  1

  0
LINE
  5
731
  8
0
 62
     0
 10
58.5353721833799199
 20
50.7999837585333012
 30
0.0
 11
69.1351472040864223
 21
62.1668508240401678
 31
0.0
  0
LINE
  5
732
  8
0
 62
     0
 10
45.6828742333017885
 20
50.7999837585333012
 30
0.0
 11
35.0830992125952719
 21
62.1668508240401465
 31
0.0
  0
ARC
  5
733
  8
0
 62
     0
 10
52.1091232083408613
 20
43.9086754348732171
 30
0.0
 40
23.7149045991625087
 50
53.0428604291731176
 51
126.9571395708268966
  0
SOLID
  5
734
  8
0
 62
     0
 10
66.6346459969263947
 20
63.1781966415289915
 30
0.0
 11
66.0992284612510019
 21
62.5396259665557892
 31
0.0
 12
68.2826492540083052
 22
61.2526586970162086
 32
0.0
 13
68.2826492540083052
 23
61.2526586970162086
 33
0.0
  0
SOLID
  5
735
  8
0
 62
     0
 10
38.1190179554306994
 20
62.5396259665557608
 30
0.0
 11
37.5836004197553066
 21
63.1781966415289702
 31
0.0
 12
35.9355971626734032
 22
61.2526586970161802
 32
0.0
 13
35.9355971626734032
 23
61.2526586970161802
 33
0.0
  0
INSERT
  5
736
  8
0
  2
*U15
 10
0.0
 20
0.0
 30
0.0
  0
POINT
  5
737
  8
DEFPOINTS
 62
     0
 10
57.9800495284466066
 20
66.885379382377721
 30
0.0
  0
POINT
  5
738
  8
DEFPOINTS
 62
     0
 10
46.1091232083408613
 20
50.342887695021318
 30
0.0
  0
POINT
  5
739
  8
DEFPOINTS
 62
     0
 10
58.1091232083408613
 20
50.342887695021318
 30
0.0
  0
POINT
  5
73A
  8
DEFPOINTS
 62
     0
 10
52.1091232083408471
 20
43.90867543487321
 30
0.0
  0
POINT
  5
73B
  8
DEFPOINTS
 62
     0
 10
52.1091232083408613
 20
43.90867543487321
 30
0.0
  0
ENDBLK
  5
6C8
  8
0
  0
BLOCK
  8
0
  2
*D6
 70
     1
 10
0.0
 20
0.0
 30
0.0
  3
*D6
  1

  0
LINE
  5
81F
  8
0
 62
     0
 10
22.1091232083408613
 20
50.967887695021318
 30
0.0
 11
22.1091232083408613
 21
55.9897491424683267
 31
0.0
  0
LINE
  5
820
  8
0
 62
     0
 10
30.1091232083408684
 20
50.967887695021318
 30
0.0
 11
30.1091232083408684
 21
55.9897491424683267
 31
0.0
  0
LINE
  5
821
  8
0
 62
     0
 10
24.6091232083408684
 20
54.7397491424683267
 30
0.0
 11
27.6091232083408684
 21
54.7397491424683267
 31
0.0
  0
SOLID
  5
822
  8
0
 62
     0
 10
24.6091232083408684
 20
55.156415809134991
 30
0.0
 11
24.6091232083408684
 21
54.3230824758016624
 31
0.0
 12
22.1091232083408613
 22
54.7397491424683267
 32
0.0
 13
22.1091232083408613
 23
54.7397491424683267
 33
0.0
  0
SOLID
  5
823
  8
0
 62
     0
 10
27.6091232083408684
 20
55.156415809134991
 30
0.0
 11
27.6091232083408684
 21
54.3230824758016624
 31
0.0
 12
30.1091232083408684
 22
54.7397491424683267
 32
0.0
 13
30.1091232083408684
 23
54.7397491424683267
 33
0.0
  0
INSERT
  5
824
  8
0
  2
*U23
 10
0.0
 20
0.0
 30
0.0
  0
POINT
  5
825
  8
DEFPOINTS
 62
     0
 10
22.1091232083408613
 20
50.342887695021318
 30
0.0
  0
POINT
  5
826
  8
DEFPOINTS
 62
     0
 10
30.1091232083408684
 20
50.342887695021318
 30
0.0
  0
POINT
  5
827
  8
DEFPOINTS
 62
     0
 10
30.1091232083408684
 20
54.7397491424683267
 30
0.0
  0
ENDBLK
  5
6E4
  8
0
  0
BLOCK
  8
0
  2
*D7
 70
     1
 10
0.0
 20
0.0
 30
0.0
  3
*D7
  1

  0
LINE
  5
831
  8
0
 62
     0
 10
58.1091232083408613
 20
50.967887695021318
 30
0.0
 11
58.1091232083408613
 21
55.781415809134991
 31
0.0
  0
LINE
  5
832
  8
0
 62
     0
 10
59.6091232083408613
 20
50.967887695021318
 30
0.0
 11
59.6091232083408613
 21
55.781415809134991
 31
0.0
  0
LINE
  5
833
  8
0
 62
     0
 10
55.6091232083408613
 20
54.531415809134991
 30
0.0
 11
53.1091232083408613
 21
54.531415809134991
 31
0.0
  0
LINE
  5
834
  8
0
 62
     0
 10
62.1091232083408613
 20
54.531415809134991
 30
0.0
 11
70.1940481742344531
 21
54.531415809134991
 31
0.0
  0
LINE
  5
835
  8
0
 62
     0
 10
58.1091232083408613
 20
54.531415809134991
 30
0.0
 11
59.6091232083408613
 21
54.531415809134991
 31
0.0
  0
SOLID
  5
836
  8
0
 62
     0
 10
55.6091232083408613
 20
54.9480824758016624
 30
0.0
 11
55.6091232083408613
 21
54.1147491424683267
 31
0.0
 12
58.1091232083408613
 22
54.531415809134991
 32
0.0
 13
58.1091232083408613
 23
54.531415809134991
 33
0.0
  0
SOLID
  5
837
  8
0
 62
     0
 10
62.1091232083408613
 20
54.9480824758016624
 30
0.0
 11
62.1091232083408613
 21
54.1147491424683267
 31
0.0
 12
59.6091232083408613
 22
54.531415809134991
 32
0.0
 13
59.6091232083408613
 23
54.531415809134991
 33
0.0
  0
INSERT
  5
838
  8
0
  2
*U25
 10
0.0
 20
0.0
 30
0.0
  0
POINT
  5
839
  8
DEFPOINTS
 62
     0
 10
58.1091232083408613
 20
50.342887695021318
 30
0.0
  0
POINT
  5
83A
  8
DEFPOINTS
 62
     0
 10
59.6091232083408613
 20
50.342887695021318
 30
0.0
  0
POINT
  5
83B
  8
DEFPOINTS
 62
     0
 10
59.6091232083408613
 20
54.531415809134991
 30
0.0
  0
ENDBLK
  5
6FC
  8
0
  0
BLOCK
  8
0
  2
*D8
 70
     1
 10
0.0
 20
0.0
 30
0.0
  3
*D8
  1

  0
LINE
  5
814
  8
0
 62
     0
 10
20.6091232083408613
 20
50.967887695021318
 30
0.0
 11
20.6091232083408613
 21
55.9897491424683267
 31
0.0
  0
LINE
  5
815
  8
0
 62
     0
 10
22.1091232083408613
 20
50.967887695021318
 30
0.0
 11
22.1091232083408613
 21
55.9897491424683267
 31
0.0
  0
LINE
  5
816
  8
0
 62
     0
 10
24.6091232083408684
 20
54.7397491424683267
 30
0.0
 11
27.1091232083408684
 21
54.7397491424683267
 31
0.0
  0
LINE
  5
817
  8
0
 62
     0
 10
18.1091232083408613
 20
54.7397491424683267
 30
0.0
 11
3.9740558614069039
 21
54.7397491424683267
 31
0.0
  0
LINE
  5
818
  8
0
 62
     0
 10
22.1091232083408613
 20
54.7397491424683267
 30
0.0
 11
20.6091232083408613
 21
54.7397491424683267
 31
0.0
  0
SOLID
  5
819
  8
0
 62
     0
 10
24.6091232083408684
 20
55.156415809134991
 30
0.0
 11
24.6091232083408684
 21
54.3230824758016624
 31
0.0
 12
22.1091232083408613
 22
54.7397491424683267
 32
0.0
 13
22.1091232083408613
 23
54.7397491424683267
 33
0.0
  0
SOLID
  5
81A
  8
0
 62
     0
 10
18.1091232083408613
 20
55.156415809134991
 30
0.0
 11
18.1091232083408613
 21
54.3230824758016624
 31
0.0
 12
20.6091232083408613
 22
54.7397491424683267
 32
0.0
 13
20.6091232083408613
 23
54.7397491424683267
 33
0.0
  0
INSERT
  5
81B
  8
0
  2
*U22
 10
0.0
 20
0.0
 30
0.0
  0
POINT
  5
81C
  8
DEFPOINTS
 62
     0
 10
20.6091232083408613
 20
50.342887695021318
 30
0.0
  0
POINT
  5
81D
  8
DEFPOINTS
 62
     0
 10
22.1091232083408613
 20
50.342887695021318
 30
0.0
  0
POINT
  5
81E
  8
DEFPOINTS
 62
     0
 10
22.1091232083408613
 20
54.7397491424683267
 30
0.0
  0
ENDBLK
  5
718
  8
0
  0
BLOCK
  8
0
  2
*D9
 70
     1
 10
0.0
 20
0.0
 30
0.0
  3
*D9
  1

  0
LINE
  5
828
  8
0
 62
     0
 10
46.1091232083408613
 20
50.967887695021318
 30
0.0
 11
46.1091232083408613
 21
55.781415809134991
 31
0.0
  0
LINE
  5
829
  8
0
 62
     0
 10
58.1091232083408613
 20
50.967887695021318
 30
0.0
 11
58.1091232083408613
 21
55.781415809134991
 31
0.0
  0
LINE
  5
82A
  8
0
 62
     0
 10
48.6091232083408613
 20
54.531415809134991
 30
0.0
 11
55.6091232083408613
 21
54.531415809134991
 31
0.0
  0
SOLID
  5
82B
  8
0
 62
     0
 10
48.6091232083408613
 20
54.9480824758016624
 30
0.0
 11
48.6091232083408613
 21
54.1147491424683267
 31
0.0
 12
46.1091232083408613
 22
54.531415809134991
 32
0.0
 13
46.1091232083408613
 23
54.531415809134991
 33
0.0
  0
SOLID
  5
82C
  8
0
 62
     0
 10
55.6091232083408613
 20
54.9480824758016624
 30
0.0
 11
55.6091232083408613
 21
54.1147491424683267
 31
0.0
 12
58.1091232083408613
 22
54.531415809134991
 32
0.0
 13
58.1091232083408613
 23
54.531415809134991
 33
0.0
  0
INSERT
  5
82D
  8
0
  2
*U24
 10
0.0
 20
0.0
 30
0.0
  0
POINT
  5
82E
  8
DEFPOINTS
 62
     0
 10
46.1091232083408613
 20
50.342887695021318
 30
0.0
  0
POINT
  5
82F
  8
DEFPOINTS
 62
     0
 10
58.1091232083408613
 20
50.342887695021318
 30
0.0
  0
POINT
  5
830
  8
DEFPOINTS
 62
     0
 10
58.1091232083408613
 20
54.531415809134991
 30
0.0
  0
ENDBLK
  5
73F
  8
0
  0
BLOCK
  8
0
  2
*D10
 70
     1
 10
0.0
 20
0.0
 30
0.0
  3
*D10
  1

  0
LINE
  5
7F9
  8
0
 62
     0
 10
26.1091232083408684
 20
45.428412854922577
 30
0.0
 11
26.1091232083408684
 21
26.3025731519292094
 31
0.0
  0
LINE
  5
7FA
  8
0
 62
     0
 10
39.1091232083408613
 20
10.9678876950213198
 30
0.0
 11
39.1091232083408613
 21
28.8025731519292094
 31
0.0
  0
LINE
  5
7FB
  8
0
 62
     0
 10
28.6091232083408684
 20
27.5525731519292094
 30
0.0
 11
36.6091232083408613
 21
27.5525731519292094
 31
0.0
  0
SOLID
  5
7FC
  8
0
 62
     0
 10
28.6091232083408684
 20
27.9692398185958808
 30
0.0
 11
28.6091232083408684
 21
27.1359064852625416
 31
0.0
 12
26.1091232083408684
 22
27.5525731519292094
 32
0.0
 13
26.1091232083408684
 23
27.5525731519292094
 33
0.0
  0
SOLID
  5
7FD
  8
0
 62
     0
 10
36.6091232083408613
 20
27.9692398185958808
 30
0.0
 11
36.6091232083408613
 21
27.1359064852625416
 31
0.0
 12
39.1091232083408613
 22
27.5525731519292094
 32
0.0
 13
39.1091232083408613
 23
27.5525731519292094
 33
0.0
  0
INSERT
  5
7FE
  8
0
  2
*U19
 10
0.0
 20
0.0
 30
0.0
  0
POINT
  5
7FF
  8
DEFPOINTS
 62
     0
 10
26.1091232083408684
 20
46.053412854922577
 30
0.0
  0
POINT
  5
800
  8
DEFPOINTS
 62
     0
 10
39.1091232083408613
 20
10.3428876950213198
 30
0.0
  0
POINT
  5
801
  8
DEFPOINTS
 62
     0
 10
39.1091232083408613
 20
27.5525731519292094
 30
0.0
  0
ENDBLK
  5
782
  8
0
  0
BLOCK
  8
0
  2
*D11
 70
     1
 10
0.0
 20
0.0
 30
0.0
  3
*D11
  1

  0
LINE
  5
802
  8
0
 62
     0
 10
39.1091232083408613
 20
10.9678876950213198
 30
0.0
 11
39.1091232083408613
 21
28.9470696709170205
 31
0.0
  0
LINE
  5
803
  8
0
 62
     0
 10
52.1091232083408613
 20
43.28367543487321
 30
0.0
 11
52.1091232083408613
 21
26.4470696709170205
 31
0.0
  0
LINE
  5
804
  8
0
 62
     0
 10
41.6091232083408471
 20
27.6970696709170205
 30
0.0
 11
49.6091232083408613
 21
27.6970696709170205
 31
0.0
  0
SOLID
  5
805
  8
0
 62
     0
 10
41.6091232083408471
 20
28.1137363375836884
 30
0.0
 11
41.6091232083408471
 21
27.2804030042503491
 31
0.0
 12
39.1091232083408613
 22
27.6970696709170205
 32
0.0
 13
39.1091232083408613
 23
27.6970696709170205
 33
0.0
  0
SOLID
  5
806
  8
0
 62
     0
 10
49.6091232083408613
 20
28.1137363375836884
 30
0.0
 11
49.6091232083408613
 21
27.2804030042503491
 31
0.0
 12
52.1091232083408613
 22
27.6970696709170205
 32
0.0
 13
52.1091232083408613
 23
27.6970696709170205
 33
0.0
  0
INSERT
  5
807
  8
0
  2
*U20
 10
0.0
 20
0.0
 30
0.0
  0
POINT
  5
808
  8
DEFPOINTS
 62
     0
 10
39.1091232083408613
 20
10.3428876950213198
 30
0.0
  0
POINT
  5
809
  8
DEFPOINTS
 62
     0
 10
52.1091232083408613
 20
43.90867543487321
 30
0.0
  0
POINT
  5
80A
  8
DEFPOINTS
 62
     0
 10
52.1091232083408613
 20
27.6970696709170205
 30
0.0
  0
ENDBLK
  5
79A
  8
0
  0
BLOCK
  8
0
  2
*D12
 70
     1
 10
0.0
 20
0.0
 30
0.0
  3
*D12
  1

  0
LINE
  5
80B
  8
0
 62
     0
 10
31.6091232083408613
 20
9.7178876950213198
 30
0.0
 11
31.6091232083408613
 21
-3.319513622553131
 31
0.0
  0
LINE
  5
80C
  8
0
 62
     0
 10
46.6091232083408471
 20
9.7178876950213162
 30
0.0
 11
46.6091232083408471
 21
-3.319513622553131
 31
0.0
  0
LINE
  5
80D
  8
0
 62
     0
 10
34.1091232083408613
 20
-2.069513622553131
 30
0.0
 11
44.1091232083408471
 21
-2.069513622553131
 31
0.0
  0
SOLID
  5
80E
  8
0
 62
     0
 10
34.1091232083408613
 20
-1.652846955886464
 30
0.0
 11
34.1091232083408613
 21
-2.4861802892197971
 31
0.0
 12
31.6091232083408613
 22
-2.069513622553131
 32
0.0
 13
31.6091232083408613
 23
-2.069513622553131
 33
0.0
  0
SOLID
  5
80F
  8
0
 62
     0
 10
44.1091232083408471
 20
-1.652846955886464
 30
0.0
 11
44.1091232083408471
 21
-2.4861802892197971
 31
0.0
 12
46.6091232083408471
 22
-2.069513622553131
 32
0.0
 13
46.6091232083408471
 23
-2.069513622553131
 33
0.0
  0
INSERT
  5
810
  8
0
  2
*U21
 10
0.0
 20
0.0
 30
0.0
  0
POINT
  5
811
  8
DEFPOINTS
 62
     0
 10
31.6091232083408613
 20
10.3428876950213198
 30
0.0
  0
POINT
  5
812
  8
DEFPOINTS
 62
     0
 10
46.6091232083408471
 20
10.3428876950213198
 30
0.0
  0
POINT
  5
813
  8
DEFPOINTS
 62
     0
 10
46.6091232083408471
 20
-2.069513622553131
 30
0.0
  0
ENDBLK
  5
7B2
  8
0
  0
BLOCK
  8
0
  2
*D13
 70
     1
 10
0.0
 20
0.0
 30
0.0
  3
*D13
  1

  0
LINE
  5
7D7
  8
0
 62
     0
 10
47.2341232083408684
 20
10.3428876950213198
 30
0.0
 11
73.0859451181154753
 21
10.3428876950213198
 31
0.0
  0
LINE
  5
7D8
  8
0
 62
     0
 10
60.2341232083408826
 20
4.3428876950213189
 30
0.0
 11
73.0859451181154753
 21
4.3428876950213207
 31
0.0
  0
LINE
  5
7D9
  8
0
 62
     0
 10
71.8359451181154753
 20
12.8428876950213304
 30
0.0
 11
71.8359451181154753
 21
15.3428876950213304
 31
0.0
  0
LINE
  5
7DA
  8
0
 62
     0
 10
71.8359451181154753
 20
1.8428876950213211
 30
0.0
 11
71.8359451181154753
 21
-0.6571123049786795
 31
0.0
  0
LINE
  5
7DB
  8
0
 62
     0
 10
71.8359451181154753
 20
10.3428876950213198
 30
0.0
 11
71.8359451181154753
 21
4.3428876950213207
 31
0.0
  0
SOLID
  5
7DC
  8
0
 62
     0
 10
71.4192784514488039
 20
12.8428876950213304
 30
0.0
 11
72.252611784782161
 21
12.8428876950213304
 31
0.0
 12
71.8359451181154753
 22
10.3428876950213198
 32
0.0
 13
71.8359451181154753
 23
10.3428876950213198
 33
0.0
  0
SOLID
  5
7DD
  8
0
 62
     0
 10
71.4192784514488039
 20
1.84288769502132
 30
0.0
 11
72.252611784782161
 21
1.8428876950213211
 31
0.0
 12
71.8359451181154753
 22
4.3428876950213207
 32
0.0
 13
71.8359451181154753
 23
4.3428876950213207
 33
0.0
  0
INSERT
  5
7DE
  8
0
  2
*U17
 10
0.0
 20
0.0
 30
0.0
  0
POINT
  5
7DF
  8
DEFPOINTS
 62
     0
 10
46.6091232083408684
 20
10.3428876950213198
 30
0.0
  0
POINT
  5
7E0
  8
DEFPOINTS
 62
     0
 10
59.6091232083408826
 20
4.3428876950213189
 30
0.0
  0
POINT
  5
7E1
  8
DEFPOINTS
 62
     0
 10
71.8359451181154753
 20
4.3428876950213207
 30
0.0
  0
ENDBLK
  5
7CA
  8
0
  0
BLOCK
  8
0
  2
*U15
 70
     1
 10
0.0
 20
0.0
 30
0.0
  3
*U15
  1

  0
TEXT
  5
8CB
  8
0
 62
     0
 10
49.513625254725568
 20
68.291213049042554
 30
0.0
 40
2.5
  1
86бу
  0
ENDBLK
  5
8CD
  8
0
  0
BLOCK
  8
0
  2
*U16
 70
     1
 10
0.0
 20
0.0
 30
0.0
  3
*U16
  1

  0
TEXT
  5
8CF
  8
0
 62
     0
 10
9.1516825639745107
 20
25.4585084317198209
 30
0.0
 40
2.5
  1
46
 50
90.0
  0
ENDBLK
  5
8D1
  8
0
  0
BLOCK
  8
0
  2
*U17
 70
     1
 10
0.0
 20
0.0
 30
0.0
  3
*U17
  1

  0
TEXT
  5
8D3
  8
0
 62
     0
 10
71.1683121031086614
 20
6.3862028382682308
 30
0.0
 40
2.5
  1
6
 50
90.0
  0
ENDBLK
  5
8D5
  8
0
  0
BLOCK
  8
0
  2
*U18
 70
     1
 10
0.0
 20
0.0
 30
0.0
  3
*U18
  1

  0
TEXT
  5
8D7
  8
0
 62
     0
 10
38.1701736858306404
 20
-9.3578534010048458
 30
0.0
 40
2.5
  1
39
  0
ENDBLK
  5
8D9
  8
0
  0
BLOCK
  8
0
  2
*U19
 70
     1
 10
0.0
 20
0.0
 30
0.0
  3
*U19
  1

  0
TEXT
  5
8DB
  8
0
 62
     0
 10
30.5559172056123494
 20
28.2219114875362997
 30
0.0
 40
2.5
  1
13
  0
ENDBLK
  5
8DD
  8
0
  0
BLOCK
  8
0
  2
*U20
 70
     1
 10
0.0
 20
0.0
 30
0.0
  3
*U20
  1

  0
TEXT
  5
8DF
  8
0
 62
     0
 10
43.5559172056123529
 20
28.3664080065241109
 30
0.0
 40
2.5
  1
13
  0
ENDBLK
  5
8E1
  8
0
  0
BLOCK
  8
0
  2
*U21
 70
     1
 10
0.0
 20
0.0
 30
0.0
  3
*U21
  1

  0
TEXT
  5
8E3
  8
0
 62
     0
 10
37.0465379423108274
 20
-1.4018806075463091
 30
0.0
 40
2.5
  1
15
  0
ENDBLK
  5
8E5
  8
0
  0
BLOCK
  8
0
  2
*U22
 70
     1
 10
0.0
 20
0.0
 30
0.0
  3
*U22
  1

  0
TEXT
  5
8E7
  8
0
 62
     0
 10
4.2187693675460594
 20
55.8592921165474507
 30
0.0
 40
2.5
  1
1,5
  0
ENDBLK
  5
8E9
  8
0
  0
BLOCK
  8
0
  2
*U23
 70
     1
 10
0.0
 20
0.0
 30
0.0
  3
*U23
  1

  0
TEXT
  5
8EB
  8
0
 62
     0
 10
24.8939117485864294
 20
55.4073821574751619
 30
0.0
 40
2.5
  1
8
  0
ENDBLK
  5
8ED
  8
0
  0
BLOCK
  8
0
  2
*U24
 70
     1
 10
0.0
 20
0.0
 30
0.0
  3
*U24
  1

  0
TEXT
  5
8EF
  8
0
 62
     0
 10
50.0687071101143886
 20
55.156415809134991
 30
0.0
 40
2.5
  1
12
  0
ENDBLK
  5
8F1
  8
0
  0
BLOCK
  8
0
  2
*U25
 70
     1
 10
0.0
 20
0.0
 30
0.0
  3
*U25
  1

  0
TEXT
  5
8F3
  8
0
 62
     0
 10
64.8538367144800105
 20
55.6509587832141079
 30
0.0
 40
2.5
  1
1,5
  0
ENDBLK
  5
8F5
  8
0
  0
BLOCK
  8
0
  2
*U26
 70
     1
 10
0.0
 20
0.0
 30
0.0
  3
*U26
  1

  0
TEXT
  5
8F7
  8
0
 62
     0
 10
23.5136252547255893
 20
68.291213049042554
 30
0.0
 40
2.5
  1
86бу
  0
ENDBLK
  5
8F9
  8
0
  0
ENDSEC
  0
SECTION
  2
ENTITIES
  0
LINE
  5
5B2
  8
0
 10
-31.5000000000000107
 20
-45.9999999999999929
 30
0.0
 11
-31.5
 21
0.0000000000000071
 31
0.0
  0
LINE
  5
5B3
  8
0
 10
-31.5
 20
0.0000000000000071
 30
0.0
 11
-30.0
 21
0.0000000000000071
 31
0.0
  0
LINE
  5
5B4
  8
0
 10
7.499999999999992
 20
0.0000000000000071
 30
0.0
 11
7.4999999999999849
 21
-45.9999999999999929
 31
0.0
  0
LINE
  5
5B5
  8
0
 10
7.4999999999999849
 20
-45.9999999999999929
 30
0.0
 11
-5.5000000000000142
 21
-45.9999999999999929
 31
0.0
  0
LINE
  5
622
  8
0
 10
-30.0
 20
0.0000000000000071
 30
0.0
 11
-26.0000000000000107
 21
-4.2894748400987259
 31
0.0
  0
LINE
  5
623
  8
0
 10
-22.0000000000000107
 20
0.0000000000000071
 30
0.0
 11
-26.0
 21
-4.2894748400987259
 31
0.0
  0
LINE
  5
6C3
  8
0
 10
5.999999999999992
 20
0.0000000000000071
 30
0.0
 11
-0.0000000000000142
 21
-6.4342122601480929
 31
0.0
  0
LINE
  5
6C4
  8
0
 10
-6.0000000000000071
 20
0.0000000000000071
 30
0.0
 11
0.0
 21
-6.4342122601480929
 31
0.0
  0
LINE
  5
757
  8
0
 10
-13.0000000000000107
 20
-40.0
 30
0.0
 11
-20.5000000000000213
 21
-40.0
 31
0.0
  0
LINE
  5
758
  8
0
 10
-13.0000000000000107
 20
-40.0
 30
0.0
 11
-5.5000000000000142
 21
-40.0
 31
0.0
  0
LINE
  5
759
  8
0
 10
-5.5000000000000142
 20
-40.0
 30
0.0
 11
-5.5000000000000142
 21
-45.9999999999999929
 31
0.0
  0
LINE
  5
75A
  8
0
 10
-20.5000000000000213
 20
-40.0
 30
0.0
 11
-20.5000000000000213
 21
-45.9999999999999929
 31
0.0
  0
LINE
  5
7F5
  8
0
 10
-22.0000000000000107
 20
0.0000000000000071
 30
0.0
 11
-6.0
 21
0.0
 31
0.0
  0
LINE
  5
7F7
  8
0
 10
6.0
 20
0.0
 30
0.0
 11
7.499999999999992
 21
0.0000000000000071
 31
0.0
  0
LINE
  5
7F8
  8
0
 10
-20.5000000000000213
 20
-45.9999999999999929
 30
0.0
 11
-31.5000000000000107
 21
-45.9999999999999929
 31
0.0
  0
ENDSEC
  0
EOF
